<svg width="20" height="20" viewBox="0 0 20 20" fill="none" xmlns="http://www.w3.org/2000/svg">
<g clip-path="url(#clip0_41_136)">
<path d="M8.55293 17.4922C8.69916 17.7454 8.90946 17.9557 9.1627 18.1019C9.41595 18.2481 9.70322 18.3251 9.99564 18.3251C10.2881 18.3251 10.5753 18.2481 10.8286 18.1019C11.0818 17.9557 11.2921 17.7454 11.4383 17.4922" stroke="#353D3C" stroke-width="1.66594" stroke-linecap="round" stroke-linejoin="round"/>
<path d="M2.71714 12.7662C2.60833 12.8854 2.53652 13.0338 2.51044 13.1931C2.48437 13.3524 2.50517 13.5159 2.57029 13.6636C2.63542 13.8113 2.74208 13.937 2.87728 14.0252C3.01249 14.1134 3.17043 14.1604 3.33187 14.1606H16.6594C16.8208 14.1606 16.9788 14.1138 17.1141 14.0257C17.2494 13.9377 17.3562 13.8122 17.4215 13.6645C17.4868 13.5169 17.5078 13.3535 17.4819 13.1941C17.456 13.0348 17.3844 12.8864 17.2758 12.767C16.1679 11.625 14.9935 10.4114 14.9935 6.66383C14.9935 5.33833 14.4669 4.06712 13.5296 3.12984C12.5924 2.19257 11.3211 1.66602 9.99563 1.66602C8.67013 1.66602 7.39891 2.19257 6.46164 3.12984C5.52437 4.06712 4.99781 5.33833 4.99781 6.66383C4.99781 10.4114 3.82249 11.625 2.71714 12.7662Z" stroke="#353D3C" stroke-width="1.66594" stroke-linecap="round" stroke-linejoin="round"/>
</g>
<defs>
<clipPath id="clip0_41_136">
<rect width="19.9913" height="19.9913" fill="white"/>
</clipPath>
</defs>
</svg>
